HIERARCHY
ROOT pelvis
{
  OFFSET 0 100 0
  CHANNELS 6 Xposition Yposition Zposition Zrotation Xrotation Yrotation
  JOINT pelvis_right_femur
  {
    OFFSET -10.78128 -3.44521 -0.5502486
    CHANNELS 3 Zrotation Xrotation Yrotation
    JOINT right_femur_tibia
    {
      OFFSET -0.8047443 -44.0398 -0.1307829
      CHANNELS 3 Zrotation Xrotation Yrotation
      JOINT right_tibia_foot
      {
        OFFSET 3.006224 -47.83518 -5
        CHANNELS 3 Zrotation Xrotation Yrotation
        End Site
        {
          OFFSET 0 -5 15
        }
      }
    }
  }
  JOINT pelvis_left_femur
  {
    OFFSET 10.78128 -3.44521 -0.5502486
    CHANNELS 3 Zrotation Xrotation Yrotation
    JOINT left_femur_tibia
    {
      OFFSET 0.8047443 -44.0398 -0.1307829
      CHANNELS 3 Zrotation Xrotation Yrotation
      JOINT left_tibia_foot
      {
        OFFSET -4.370144 -48.10324 -4.275266
        CHANNELS 3 Zrotation Xrotation Yrotation
        End Site
        {
          OFFSET 0 -5 15
        }
      }
    }
  }
  JOINT pelvis_spine1
  {
    OFFSET 0 6.468898 -3.129235
    CHANNELS 3 Zrotation Xrotation Yrotation
    JOINT spine1
    {
      OFFSET 0 23.15396 4.99043
      CHANNELS 3 Zrotation Xrotation Yrotation
      JOINT spine2
      {
        OFFSET 0 20.79997 -5.064912
        CHANNELS 3 Zrotation Xrotation Yrotation
        JOINT neck
        {
          OFFSET 0 14.38658 9.616178
          CHANNELS 3 Zrotation Xrotation Yrotation
          End Site
          {
            OFFSET 0 20 0
          }
        }
      }
      JOINT right_manubrium
      {
        OFFSET -5.722621 16.35077 3.967754
        CHANNELS 3 Zrotation Xrotation Yrotation
        JOINT right_clavicle
        {
          OFFSET -13.16364 1.694482 -4.693211
          CHANNELS 3 Zrotation Xrotation Yrotation
          JOINT right_humerus
          {
            OFFSET -28.5034 -0.3100689 -2.792744
            CHANNELS 3 Zrotation Xrotation Yrotation
            JOINT right_radius
            {
              OFFSET -25.15693 0.02248979 -1.271978
              CHANNELS 3 Zrotation Xrotation Yrotation
              End Site
              {
                OFFSET -15 0 0
              }
            }
          }
        }
      }
      JOINT left_manubrium
      {
        OFFSET 5.722621 16.35077 3.967754
        CHANNELS 3 Zrotation Xrotation Yrotation
        JOINT left_clavicle
        {
          OFFSET 13.16364 1.694482 -4.693211
          CHANNELS 3 Zrotation Xrotation Yrotation
          JOINT left_humerus
          {
            OFFSET 29.39168 -1.063119 -2.237045
            CHANNELS 3 Zrotation Xrotation Yrotation
            JOINT left_radius
            {
              OFFSET 24.59957 -0.9528479 0.9047498
              CHANNELS 3 Zrotation Xrotation Yrotation
              End Site
              {
                OFFSET 15 -0 -0
              }
            }
          }
        }
      }
    }
  }
}
MOTION
Frames: 17
Frame Time: 0.0416666666667
0 103.5113 0 1.118854 -1.058512 -0.06658187 3.073394 -13.50756 10.40767 -0 40.91725 -0 -8.004812 -17.702 -3.225029 -7.228633 11.10663 -25.02618 -0 5.810986 -0 9.981148 -16.37108 28.65358 -3.519993 -4.798481 4.892612 2.246255 9.28997 -7.095057 1.751026 23.06562 5.843422 2.471992 -25.61624 9.532627 5.814571 -20.39443 10.99154 86.02723 34.11074 -18.93542 -0 0 15.88024 -4.548945 5.837511 3.190325 5.419914 -18.99924 -1.159895 -96.01798 27.79534 24.18812 0 0 -13.2519 9.267139 19.71528 4.226498
0.1594433 103.6213 1.335101 0.7360036 -0.6871624 -0.1244074 3.59653 -15.57986 10.08651 -0 39.81082 -0 -7.831724 -16.26424 -3.085792 -6.953508 11.14636 -24.26699 -0 5.919916 -0 9.404825 -16.97726 27.91128 -3.250136 -4.449946 4.811971 2.285549 9.408032 -7.269702 1.71674 22.71391 6.074059 2.660897 -25.74748 9.588478 5.790947 -20.3106 11.0553 86.11924 34.14767 -19.14988 -0 0 15.82796 -5.169987 6.376332 3.380368 5.675542 -19.42177 -1.200781 -95.61505 27.46657 23.82904 0 0 -14.09225 9.354745 19.29181 4.257735
0.4237336 103.4588 3.712015 -0.679042 0.2321512 0.02110529 4.970392 -23.47628 7.744809 -0 34.71599 -0 -7.508985 -9.106282 -2.276633 -5.798798 11.77023 -20.70507 -0 6.470456 -0 6.189136 -19.47203 24.00854 -2.210966 -2.832783 4.141879 2.364529 9.978891 -7.855799 1.5005 21.47099 7.167421 3.52932 -25.92683 9.717576 5.437655 -19.68044 11.34936 86.74049 33.57172 -19.90436 -0 0 14.83904 -8.976217 8.747104 4.880034 6.697719 -21.31927 -1.751956 -93.27735 25.52794 21.32667 0 0 -17.4884 9.715425 17.46035 3.983259
0.699638 103.198 6.477941 -1.225876 1.570026 0.2736338 6.087324 -27.42403 7.591215 -0 30.64523 -0 -7.149689 -7.626437 -2.011958 -5.564436 12.14333 -19.62612 -0 7.28047 -0 5.33316 -20.57076 22.60475 -1.950751 -2.307113 4.072534 2.662374 9.850967 -8.200141 1.45047 20.78717 7.482175 3.775736 -26.47682 9.863487 5.57911 -19.30022 11.35809 86.84279 34.42116 -20.57954 -0 0 14.36643 -8.877363 9.289681 4.894663 7.128409 -21.84877 -1.470121 -92.72729 25.56857 20.70759 0 0 -19.49662 9.725298 16.48335 4.23234
0.9860842 102.7742 9.738089 -1.647877 2.755803 0.6298231 6.911794 -31.14192 6.947963 -0 25.69287 -0 -6.965075 -5.693273 -1.597735 -5.414999 12.70113 -18.34278 -0 8.337806 -0 4.33874 -21.65036 20.9223 -1.791736 -1.73147 3.905543 2.946293 9.710847 -8.455695 1.386377 20.21093 7.800376 4.015025 -26.90762 9.964473 5.579741 -18.75882 11.34909 87.14422 35.06321 -21.27995 -0 0 13.36979 -9.094791 9.78132 5.163021 7.559995 -22.44238 -1.287537 -91.77741 25.3697 19.49526 0 0 -21.73523 9.851912 15.36402 4.206377
1.274614 102.1604 13.45888 -1.834714 3.325314 1.047455 7.09729 -33.3762 5.892129 -0 21.39638 -0 -7.002907 -3.81982 -1.248193 -5.357488 13.31712 -17.12518 -0 9.336681 -0 3.195669 -22.4948 19.32865 -1.721714 -1.294732 3.693687 3.094152 9.601694 -8.564327 1.325241 19.94168 8.004471 4.150123 -27.0457 9.952235 5.343258 -18.24531 11.30133 87.64589 35.02552 -21.88613 -0 0 12.16562 -9.694729 10.08004 5.603443 7.862225 -22.98474 -1.30411 -90.79134 25.17823 18.12508 0 0 -23.57333 9.723487 14.5381 4.333057
1.561065 101.3447 17.68924 -1.836041 3.318251 1.514171 6.661035 -34.52524 4.22819 -0 17.34279 -0 -7.165212 -1.721544 -0.9596976 -5.341564 14.07091 -15.67382 -0 10.41538 -0 1.785375 -23.11776 17.56564 -1.680821 -0.9367075 3.407792 3.12797 9.568465 -8.593868 1.23347 19.89868 8.154404 4.21215 -26.86915 9.809319 4.834749 -17.71642 11.25006 88.39742 34.24774 -22.47853 -0 0 10.66686 -10.96041 10.34065 6.301233 8.080481 -23.60597 -1.580938 -89.53444 24.69689 16.32115 0 0 -25.27373 9.482357 13.80988 4.392906
1.838981 100.3568 22.44968 -1.659334 2.891974 2.019522 5.862946 -34.59537 2.363872 -0 13.64249 -0 -7.312622 0.2068429 -0.8508358 -5.382871 14.87302 -14.09131 -0 11.72756 -0 0.3612302 -23.38974 15.85551 -1.665429 -0.7363584 3.131715 3.08441 9.590124 -8.592104 1.12426 20.02401 8.201232 4.166691 -26.45147 9.546939 4.137455 -17.23161 11.19786 89.34731 32.96142 -23.11103 -0 0 9.041454 -12.55726 10.5301 7.084141 8.186885 -24.2348 -2.022988 -88.17571 24.03949 14.33984 0 0 -26.84477 9.112093 13.14096 4.485697
2.101268 99.24793 27.77079 -1.319664 2.102421 2.548395 4.921277 -33.60773 0.5512059 -0 10.3945 -0 -7.340527 1.870584 -0.9964634 -5.460045 15.67819 -12.35265 -0 13.53885 -0 -0.9046787 -23.11953 14.28809 -1.642857 -0.7422479 2.897109 2.981152 9.704679 -8.602056 0.9915507 20.26397 8.133237 4.006612 -25.80157 9.156283 3.285119 -16.82843 11.17617 90.5024 31.26118 -23.83236 -0 0 7.36153 -14.43717 10.69875 7.909197 8.15297 -24.86409 -2.625499 -86.72863 23.09433 12.26257 0 0 -28.35553 8.682574 12.43739 4.543554
2.342305 98.12525 33.66655 -0.9027786 1.068245 3.075094 4.176358 -31.68482 -0.7705249 -0 8.018719 -0 -7.137226 3.129483 -1.476778 -5.495382 16.37046 -10.54161 -0 16.2342 -0 -1.852936 -22.03962 12.98767 -1.527419 -1.008867 2.747744 2.838213 9.967528 -8.680811 0.833874 20.51521 7.956494 3.751302 -24.97531 8.652677 2.391811 -16.57906 11.23096 91.79628 29.37424 -24.68083 -0 0 5.852866 -16.46332 10.9582 8.692345 7.939006 -25.44565 -3.350901 -85.33891 21.83373 10.40984 0 0 -29.78008 8.222344 11.64873 4.599797
2.559453 97.17687 40.11144 -0.6047777 0.04520576 3.546475 4.038767 -29.22001 -1.115041 -0 7.050971 -0 -6.660381 3.870945 -2.266592 -5.344429 16.73785 -8.867724 -0 20.43815 -0 -2.421561 -19.82195 11.9989 -1.168171 -1.550124 2.730505 2.690016 10.43541 -8.884237 0.6505939 20.60817 7.723725 3.468015 -24.12697 8.093446 1.678503 -16.55597 11.41926 93.06574 27.74197 -25.68417 -0 0 4.850953 -18.36351 11.47915 9.328146 7.514309 -25.89316 -4.10067 -84.25143 20.35032 9.326561 0 0 -31.03829 7.763037 10.76031 4.75343
2.756775 96.6736 46.99848 -0.717095 -0.5463941 3.873405 4.873697 -26.83328 -0.1108828 -0 7.891925 -0 -6.02653 4.005176 -3.137657 -4.836469 16.36745 -7.711675 -0 26.9082 -0 -2.761624 -16.23935 11.2313 -0.3969548 -2.268745 2.908306 2.581852 11.11098 -9.215439 0.4564693 20.34458 7.537135 3.269125 -23.54145 7.597837 1.486719 -16.79456 11.78041 94.01608 27.06172 -26.80013 -0 0 4.752564 -19.65442 12.42656 9.717046 6.88357 -26.06176 -4.662726 -83.82204 19.04758 9.76714 0 0 -31.92944 7.25389 9.842547 5.322016
2.957023 96.89065 54.11246 -1.410213 -0.3453226 3.973374 6.679571 -24.83301 2.113033 -0 10.28395 -0 -5.523504 3.47289 -3.650785 -3.950956 14.55994 -7.41747 -0 36.06033 -0 -3.227053 -11.47606 10.48829 0.78791 -2.895102 3.367413 2.53561 11.89783 -9.5515 0.288541 19.66153 7.499361 3.258326 -23.49598 7.302655 2.126054 -17.2442 12.29949 94.30862 27.99192 -27.79461 -0 0 5.775079 -19.88917 13.80217 9.892048 6.096239 -25.8088 -4.776384 -84.39487 18.57799 12.30075 0 0 -32.11019 6.501391 9.035206 6.828529
3.218971 97.92576 61.16492 -2.343466 0.4832407 3.837352 8.601094 -22.50059 4.545535 -0 12.87147 -0 -5.330533 2.196283 -3.437113 -3.056372 10.50666 -7.829655 -0 46.95127 -0 -4.053825 -6.509257 9.708272 1.944554 -3.049868 4.20869 2.501159 12.62114 -9.633383 0.199734 18.84013 7.603632 3.430533 -23.91585 7.247887 3.555968 -17.76647 12.88253 93.72461 30.51307 -28.13737 -0 0 7.673101 -19.27271 15.33157 10.16239 5.233498 -25.14636 -4.355665 -86.03683 19.33738 16.57432 0 0 -31.24223 5.249151 8.400987 9.604858
3.605684 99.52152 67.89013 -2.631686 1.027051 3.488484 9.080863 -18.43971 5.675522 -0 13.76043 -0 -5.228391 0.09539478 -2.600432 -2.710001 4.070953 -8.151866 -0 56.68621 -0 -4.97821 -3.000606 9.164834 2.259119 -2.525715 5.451514 2.350121 13.12101 -9.212798 0.2254387 18.46811 7.694892 3.646095 -24.1472 7.291959 5.174448 -18.1884 13.36879 92.24837 33.52044 -27.18968 -0 0 9.749303 -18.97226 16.62255 10.92221 4.430259 -24.35182 -3.698017 -88.10668 20.80403 20.82788 0 0 -29.35607 3.649233 7.903487 12.86161
4.086408 101.1512 74.11856 -1.776948 0.4621825 2.99333 7.670623 -12.45668 5.208533 -0 12.42781 -0 -5.089338 -2.823246 -1.635999 -2.824913 -3.57141 -7.816876 -0 62.14593 -0 -5.494501 -2.015774 9.279222 1.412728 -1.534866 6.83899 1.957604 13.25409 -8.24744 0.360161 18.94248 7.638012 3.800537 -23.48478 7.25927 6.218441 -18.37107 13.58459 90.03979 35.73347 -24.72344 -0 0 11.40709 -19.8026 17.43318 11.9371 3.930435 -23.67922 -3.193594 -89.52643 21.90086 23.07577 0 0 -26.93671 2.572851 7.840836 14.60348
4.553894 102.3503 79.82325 -0.4536612 -0.871203 2.529572 5.82409 -6.137897 4.339788 -0 10.3224 -0 -5.255855 -6.342234 -0.8759119 -2.593901 -10.94587 -7.052965 -0 62.39846 -0 -5.579474 -2.791362 10.23717 0.1672701 -0.475407 7.888829 1.339856 12.89721 -6.941398 0.540044 20.00936 7.470911 3.904295 -22.11757 7.147801 6.411245 -18.40702 13.4816 87.38729 36.88462 -21.0921 -0 0 12.7263 -20.95521 17.64834 12.48038 3.934965 -22.96677 -2.820996 -90.20084 22.25988 23.42143 0 0 -24.45046 2.616754 8.557163 13.93941
